<svg xmlns="http://www.w3.org/2000/svg" viewBox="0 0 512 512" width="512" height="512">
  <defs>
    <linearGradient id="primaryGrad" x1="0%" y1="0%" x2="100%" y2="100%">
      <stop offset="0%" style="stop-color:#059669;stop-opacity:1" />
      <stop offset="100%" style="stop-color:#10b981;stop-opacity:1" />
    </linearGradient>
  </defs>
  <!-- Background with Slate charcoal/zinc color matching the app -->
  <rect width="512" height="512" rx="120" fill="#18181b" stroke="#ffffff" stroke-opacity="0.1" stroke-width="4" />
  
  <!-- Droplet / Vision Emblem -->
  <g transform="translate(144, 112)">
    <!-- Outer glow -->
    <path d="M112,20 C112,20 224,150 224,224 C224,286 174,336 112,336 C50,336 0,286 0,224 C0,150 112,20 112,20 Z" fill="url(#primaryGrad)" opacity="0.15" transform="scale(1.1) translate(-10, -15)" />
    
    <!-- Core Droplet -->
    <path d="M112,20 C112,20 224,150 224,224 C224,286 174,336 112,336 C50,336 0,286 0,224 C0,150 112,20 112,20 Z" fill="url(#primaryGrad)" />
    
    <!-- Sparkle/Vision overlay -->
    <path d="M112,70 L123,115 L168,126 L123,137 L112,182 L101,137 L56,126 L101,115 Z" fill="#ffffff" />
    <circle cx="112" cy="240" r="16" fill="#ffffff" opacity="0.8" />
  </g>
</svg>
